<svg width="12" height="10" viewBox="0 0 12 10" fill="none" xmlns="http://www.w3.org/2000/svg">
<path d="M11.0681 4.90147L10.6339 6.75173L11.5435 6.8677L11.9777 5.01739L11.0681 4.90147ZM6.76591 9.07058H3.90523V9.75087H6.76591V9.07058ZM3.34439 8.69075L2.84461 4.43089L1.92498 4.48948L2.42476 8.74935L3.34439 8.69075ZM10.6339 6.75173C10.3221 8.08084 8.69592 9.07058 6.76591 9.07058V9.75087C9.12046 9.75087 11.151 8.54041 11.5435 6.8677L10.6339 6.75173ZM6.77194 1.74615L6.36413 3.58048L7.27507 3.69048L7.68288 1.85615L6.77194 1.74615ZM3.0384 4.07976L3.92376 3.5175L3.3212 3.00215L2.43583 3.56443L3.0384 4.07976ZM5.53454 1.68806L5.82727 0.856356L4.93381 0.685539L4.64105 1.51724L5.53454 1.68806ZM6.26942 0.693176L6.35865 0.714297L6.64093 0.0666075L6.55176 0.0454866L6.26942 0.693176ZM5.09116 2.52434C5.2831 2.25947 5.4322 1.97892 5.53454 1.68806L4.64105 1.51724C4.55715 1.75564 4.43485 1.98597 4.27696 2.2038L5.09116 2.52434ZM6.35865 0.714297C6.5472 0.758942 6.68111 0.866279 6.72511 0.99134L7.61858 0.820527C7.49218 0.461323 7.11913 0.179813 6.64093 0.0666075L6.35865 0.714297ZM5.82727 0.856356C5.84881 0.795125 5.90881 0.738856 5.99964 0.706614L5.59891 0.0937648C5.27153 0.210022 5.02562 0.424623 4.93381 0.685539L5.82727 0.856356ZM5.99964 0.706614C6.08253 0.677167 6.18013 0.672042 6.26942 0.693176L6.55176 0.0454866C6.23804 -0.0287788 5.89589 -0.0117034 5.59891 0.0937648L5.99964 0.706614ZM7.3251 4.41474H10.5134V3.73445H7.3251V4.41474ZM7.68288 1.85615C7.7595 1.51141 7.73759 1.15866 7.61858 0.820527L6.72511 0.99134C6.81188 1.23778 6.82782 1.49488 6.77194 1.74615L7.68288 1.85615ZM3.90523 9.07058C3.6136 9.07058 3.36964 8.90595 3.34439 8.69075L2.42476 8.74935C2.4912 9.31558 3.13376 9.75087 3.90523 9.75087V9.07058ZM3.92376 3.5175C4.34214 3.2518 4.79307 2.93554 5.09116 2.52434L4.27696 2.2038C4.06381 2.49789 3.7244 2.74609 3.3212 3.00215L3.92376 3.5175ZM11.9777 5.01739C12.1348 4.34775 11.4361 3.73445 10.5134 3.73445V4.41474C10.8621 4.41474 11.1278 4.64681 11.0681 4.90147L11.9777 5.01739ZM6.36413 3.58048C6.26708 4.01718 6.72382 4.41474 7.3251 4.41474V3.73445C7.29439 3.73445 7.26984 3.71395 7.27507 3.69048L6.36413 3.58048ZM2.84461 4.43089C2.82897 4.29755 2.90118 4.16693 3.0384 4.07976L2.43583 3.56443C2.07379 3.79436 1.8838 4.13859 1.92498 4.48948L2.84461 4.43089Z" fill="#1C274C"/>
<path opacity="0.5" d="M0.461533 4.07454L0.921349 4.04524C0.900057 3.86375 0.688564 3.72685 0.441638 3.7347C0.194705 3.74255 0 3.89237 0 4.07454H0.461533ZM1.51925 9.14132L0.921349 4.04524L0.00171689 4.10384L0.599617 9.19992L1.51925 9.14132ZM0.923066 9.18967V4.07454H0V9.18967H0.923066ZM0.599617 9.19992C0.5915 9.13075 0.665506 9.07053 0.761043 9.07053V9.75082C1.20779 9.75082 1.55765 9.46868 1.51925 9.14132L0.599617 9.19992ZM0.761043 9.07053C0.851017 9.07053 0.923066 9.12422 0.923066 9.18967H0C0 9.4992 0.340236 9.75082 0.761043 9.75082V9.07053Z" fill="#1C274C"/>
</svg>
