<svg width="3" height="4" viewBox="0 0 3 4" fill="none" xmlns="http://www.w3.org/2000/svg">
<path d="M1.5 0C1.10234 0.000485181 0.721081 0.175879 0.439876 0.487704C0.158671 0.799529 0.000477339 1.22232 0 1.66333C0 2.09166 0.299068 2.762 0.888939 3.65566C0.959161 3.76235 1.05111 3.84914 1.15729 3.90898C1.26347 3.96881 1.38089 4 1.5 4C1.6191 4 1.73653 3.96881 1.84271 3.90898C1.94889 3.84914 2.04084 3.76235 2.11106 3.65566C2.70093 2.762 3 2.09166 3 1.66333C2.99952 1.22232 2.84133 0.799529 2.56012 0.487704C2.27892 0.175879 1.89766 0.000485181 1.5 0ZM1.5 2.32633C1.38111 2.32633 1.26488 2.28723 1.16602 2.21398C1.06717 2.14072 0.990116 2.0366 0.944617 1.91479C0.899118 1.79297 0.887213 1.65892 0.910408 1.5296C0.933604 1.40028 0.990857 1.2815 1.07493 1.18826C1.159 1.09503 1.26611 1.03153 1.38272 1.00581C1.49933 0.980085 1.6202 0.993287 1.73005 1.04375C1.83989 1.0942 1.93378 1.17965 1.99983 1.28928C2.06589 1.39892 2.10114 1.52781 2.10114 1.65966C2.10114 1.83647 2.03781 2.00604 1.92507 2.13107C1.81234 2.25609 1.65943 2.32633 1.5 2.32633Z" fill="#6B7983"/>
</svg>
