<!DOCTYPE svg PUBLIC "-//W3C//DTD SVG 1.1//EN" "http://www.w3.org/Graphics/SVG/1.1/DTD/svg11.dtd">
<!-- Uploaded to: SVG Repo, www.svgrepo.com, Transformed by: SVG Repo Mixer Tools -->
<svg fill="#374957" height="800px" width="800px" version="1.1" id="Layer_1" xmlns="http://www.w3.org/2000/svg" xmlns:xlink="http://www.w3.org/1999/xlink" viewBox="0 0 512 512" xml:space="preserve" stroke="#374957" stroke-width="5.632">
<g id="SVGRepo_bgCarrier" stroke-width="0"/>
<g id="SVGRepo_tracerCarrier" stroke-linecap="round" stroke-linejoin="round"/>
<g id="SVGRepo_iconCarrier"> <g> <g> <path d="M432.829,139.437h-55.93c17.248-13.971,28.231-36.092,28.231-60.358C405.13,35.424,369.615,0,325.96,0 c-30.303,0-56.671,17.166-69.972,42.235c-13.305-25.069-39.671-42.167-69.974-42.167c-43.655,0-79.17,35.344-79.17,78.998 c0,24.268,10.985,46.4,28.231,60.371H78.912c-30.819,0-55.764,25.253-55.764,56.067c0,24.281,16.431,45.167,37.388,52.859v217.462 c0,25.664,20.629,46.175,46.309,46.175h298.05c25.68,0,46.832-20.511,46.832-46.175V248.364 c20.957-7.692,37.125-28.578,37.125-52.859C488.852,164.69,463.647,139.437,432.829,139.437z M246.818,493.372H106.845 c-15.408,0-27.681-12.156-27.681-27.547V251.206h167.653V493.372z M246.818,232.578H78.912c-20.547,0-37.265-16.713-37.265-37.256 c0-20.543,16.718-37.256,37.265-37.256h107.103h60.803V232.578z M246.818,139.437h-60.803c-33.384,0-60.541-26.976-60.541-60.358 c0-33.384,27.287-60.45,60.671-60.45c33.386,0,60.673,27.25,60.673,60.632V139.437z M265.446,79.26 c0-33.383,27.144-60.541,60.528-60.541c33.384,0,60.535,26.976,60.535,60.36c0,33.383-27.164,60.358-60.548,60.358h-60.514V79.26z M433.099,465.825c0,15.39-12.795,27.547-28.204,27.547h-139.45V251.206h167.383h0.271V465.825z M432.829,232.578H265.446v-74.513 h60.514h106.868c20.547,0,37.265,16.713,37.265,37.256C470.094,215.864,453.376,232.578,432.829,232.578z"/> </g> </g> </g>
</svg>