<svg width="19" height="22" viewBox="0 0 19 22" fill="none" xmlns="http://www.w3.org/2000/svg">
<path d="M15.8277 6.8781L6.94575 1.70149C0.965207 -1.76711 -1.51519 0.991792 1.43045 7.83606L2.73239 10.8564L1.37793 13.8468C-1.68668 20.6235 0.752374 23.4461 6.78498 20.1041L15.7555 15.145C19.7749 12.9085 19.8147 9.19611 15.8277 6.8781ZM12.0313 11.6344L6.377 11.5877C6.1544 11.5852 5.96236 11.482 5.82278 11.3205C5.6832 11.1589 5.59607 10.939 5.59827 10.6865C5.60254 10.1982 5.96223 9.79814 6.39259 9.80298L12.0468 9.84968C12.4772 9.85452 12.8298 10.2626 12.8256 10.7509C12.8213 11.2391 12.4616 11.6392 12.0313 11.6344Z" fill="#374957"/>
</svg>
