<svg width="28" height="28" viewBox="0 0 28 28" fill="none" xmlns="http://www.w3.org/2000/svg">
<path d="M27.9999 14.3114C27.9999 13.1603 27.9046 12.3203 27.6983 11.4492H14.2856V16.6447H22.1586C21.9999 17.9359 21.1428 19.8803 19.238 21.1869L19.2113 21.3609L23.4521 24.5805L23.7459 24.6092C26.4443 22.167 27.9999 18.5736 27.9999 14.3114" fill="#4285F4"/>
<path d="M14.2848 28.0008C18.1419 28.0008 21.38 26.7562 23.7451 24.6096L19.2372 21.1873C18.0308 22.0117 16.4118 22.5873 14.2848 22.5873C10.5071 22.5873 7.30079 20.1451 6.15783 16.7695L5.99029 16.7835L1.58062 20.128L1.52295 20.2851C3.87212 24.8584 8.69751 28.0008 14.2848 28.0008Z" fill="#34A853"/>
<path d="M6.15866 16.768C5.85708 15.8969 5.68255 14.9635 5.68255 13.9991C5.68255 13.0346 5.85708 12.1013 6.1428 11.2302L6.13481 11.0447L1.66986 7.64648L1.52377 7.71458C0.555561 9.61238 0 11.7435 0 13.9991C0 16.2546 0.555561 18.3857 1.52377 20.2835L6.15866 16.768" fill="#FBBC05"/>
<path d="M14.2849 5.4133C16.9674 5.4133 18.7769 6.54885 19.8087 7.4978L23.8404 3.64C21.3643 1.38445 18.142 0 14.2849 0C8.69755 0 3.87214 3.1422 1.52295 7.71549L6.14199 11.2311C7.30082 7.85555 10.5072 5.4133 14.2849 5.4133" fill="#EB4335"/>
</svg>
