<svg width="17" height="16" viewBox="0 0 17 16" fill="none" xmlns="http://www.w3.org/2000/svg">
<path d="M16.7394 14.394L12.8856 10.7669C13.8135 9.60434 14.3143 8.18932 14.3126 6.73536C14.3126 3.02151 11.1023 0 7.15632 0C3.21035 0 0 3.02151 0 6.73536C0 10.4492 3.21035 13.4707 7.15632 13.4707C8.70115 13.4723 10.2046 13.0009 11.4398 12.1277L15.2936 15.7548C15.4887 15.9189 15.7431 16.0065 16.0047 15.9996C16.2662 15.9927 16.5151 15.8919 16.7001 15.7177C16.8851 15.5436 16.9923 15.3094 16.9996 15.0632C17.0069 14.8171 16.9138 14.5776 16.7394 14.394ZM2.04466 6.73536C2.04466 5.78384 2.34446 4.85369 2.90613 4.06253C3.46781 3.27137 4.26614 2.65473 5.20017 2.2906C6.13421 1.92647 7.16199 1.8312 8.15355 2.01683C9.14512 2.20246 10.0559 2.66066 10.7708 3.33349C11.4857 4.00632 11.9725 4.86355 12.1698 5.79679C12.367 6.73002 12.2658 7.69735 11.8789 8.57644C11.492 9.45553 10.8368 10.2069 9.9962 10.7355C9.1556 11.2642 8.16731 11.5463 7.15632 11.5463C5.80112 11.5448 4.5019 11.0374 3.54363 10.1355C2.58536 9.23364 2.04629 8.01084 2.04466 6.73536Z" fill="#374957"/>
</svg>
