<svg width="12" height="12" viewBox="0 0 12 12" fill="none" xmlns="http://www.w3.org/2000/svg">
<mask id="mask0_13014_355" style="mask-type:luminance" maskUnits="userSpaceOnUse" x="0" y="0" width="12" height="12">
<path d="M12 0H0V12H12V0Z" fill="white"/>
</mask>
<g mask="url(#mask0_13014_355)">
<path d="M6 7.50123C5.8674 7.50123 5.74025 7.44621 5.64645 7.35621C5.5527 7.26121 5.5 7.13623 5.5 7.00123V3.00123C5.5 2.86623 5.5527 2.74125 5.64645 2.64625C5.74025 2.55625 5.8674 2.50123 6 2.50123C6.1326 2.50123 6.2598 2.55625 6.35355 2.64625C6.44735 2.74125 6.5 2.86623 6.5 3.00123V7.00123C6.5 7.13623 6.44735 7.26121 6.35355 7.35621C6.2598 7.44621 6.1326 7.50123 6 7.50123ZM6.3965 11.8812C7.4765 11.4462 11 9.74125 11 6.02125V3.43622C11.0006 2.91122 10.8353 2.4012 10.5277 1.9712C10.2201 1.5462 9.78595 1.23123 9.287 1.06623L6.1575 0.02625C6.05535 -0.00875 5.9447 -0.00875 5.8425 0.02625L2.713 1.06623C2.21405 1.23123 1.7799 1.5462 1.4723 1.9712C1.16475 2.4012 0.999451 2.91122 1 3.43622V6.02125C1 9.30625 4.5025 11.3112 5.5765 11.8462C5.71235 11.9112 5.8542 11.9662 6 12.0012C6.1356 11.9712 6.2683 11.9312 6.3965 11.8812ZM8.972 2.01124C9.2713 2.11124 9.53165 2.30122 9.7162 2.56122C9.90075 2.81622 10.0001 3.12122 10 3.43622V6.02125C10 9.11625 6.9565 10.5762 6.0235 10.9512C5.0795 10.4812 2 8.73125 2 6.02125V3.43622C1.99995 3.12122 2.09925 2.81622 2.2838 2.56122C2.46835 2.30122 2.72875 2.11124 3.028 2.01124L6 1.02625L8.972 2.01124ZM6 8.50123C5.9011 8.50123 5.80445 8.53125 5.72225 8.58625C5.64 8.64125 5.5759 8.71622 5.53805 8.81122C5.50025 8.90122 5.49035 9.0012 5.5096 9.1012C5.5289 9.1962 5.57655 9.28621 5.64645 9.35621C5.7164 9.42621 5.8055 9.47122 5.90245 9.49122C5.99945 9.51122 6.1 9.50125 6.19135 9.46125C6.2827 9.42625 6.3608 9.36126 6.41575 9.28126C6.4707 9.19626 6.5 9.10123 6.5 9.00123C6.5 8.86623 6.44735 8.74125 6.35355 8.64625C6.2598 8.55625 6.1326 8.50123 6 8.50123Z" fill="#374957"/>
</g>
</svg>
