<svg width="68" height="66" viewBox="0 0 68 66" fill="none" xmlns="http://www.w3.org/2000/svg">
<path d="M19.7227 48.792C19.7227 48.792 8.22022 50.2308 3.91501 58.9331C3.50322 59.7655 4.02685 60.7371 4.99612 60.9241C8.42251 61.5858 16.3025 62.1569 23.181 55.6684L19.7227 48.792Z" fill="#EBAF29"/>
<path d="M20.5401 49.8652C20.5401 49.8652 13.0721 50.7994 10.2771 56.4492C10.0099 56.9896 10.3499 57.6204 10.9789 57.742C13.2034 58.1716 18.3196 58.5424 22.7854 54.3297L20.5401 49.8652Z" fill="#E1781C"/>
<path d="M25.2331 10.3932C25.2331 10.3932 23.8217 13.5877 24.357 15.2525C24.8923 16.9173 20.045 15.7037 18.8699 19.18C18.4554 20.4066 19.4838 22.078 18.6178 22.6849C16.1413 24.4206 15.7754 26.5601 19.6338 27.4903C26.9664 29.2582 34.6167 24.0023 35.3102 18.5531C35.622 16.1038 37.6481 14.6629 35.0238 11.1864C33.7437 9.49045 32.3911 7.22487 30.9962 7.56078C29.6011 7.89687 25.2331 10.3932 25.2331 10.3932Z" fill="#362C37"/>
<path d="M45.1234 51.6984L45.2497 54.3638L50.1125 54.4654L49.6216 50.4341C49.6212 50.4341 46.4348 50.2523 45.1234 51.6984Z" fill="#DF6942"/>
<path d="M25.3947 40.1053C25.1743 40.172 25.0304 40.3666 25.0416 40.5808C25.1122 41.9158 25.5929 46.5182 28.8635 47.6886C32.0703 48.8361 39.2383 43.0114 41.5093 41.0645C41.8108 40.8059 42.3012 40.9645 42.3648 41.3402L44.1524 51.8887C44.1946 52.138 44.4403 52.3131 44.7118 52.2876L50.3395 51.7587C50.5947 51.7348 50.7916 51.5411 50.8009 51.3041C50.9128 48.445 51.3753 31.6789 46.883 30.8184C42.909 30.057 31.7441 37.7745 30.7802 38.4472C30.7351 38.4787 30.6859 38.5022 30.632 38.5186L25.3947 40.1053Z" fill="white"/>
<path d="M44.6901 53.7666C44.5936 55.4235 43.9875 57.886 45.0052 57.9365C45.8418 57.9782 54.2449 58.3961 54.6156 58.4146C54.9864 58.4332 54.9504 57.301 53.9457 56.9933C52.9409 56.6855 50.4304 54.7112 50.2215 54.0419L44.6901 53.7666Z" fill="#523B89"/>
<path d="M17.9134 46.3304C16.22 44.6605 13.3958 44.7469 10.8747 45.2919C8.35262 45.8402 8.08632 46.2232 8.31352 45.385C8.55647 44.4843 11.9924 41.1538 18.7738 38.833C23.8121 37.1111 27.0975 38.0391 28.6186 38.7527C24.4888 41.1961 20.9035 43.7988 18.1181 46.2164L18.1157 46.2174C17.9946 46.2888 17.9239 46.328 17.9134 46.3304Z" fill="#8C78FA"/>
<path d="M19.7578 65.9209C18.8878 65.6053 19.3783 65.6251 21.3254 64.0448C23.2702 62.4658 24.9856 60.3899 24.4968 58.1436C24.505 58.1369 24.5781 58.1076 24.7067 58.0601C24.7067 58.0601 24.7067 58.0601 24.709 58.059C28.4554 57.3656 32.8349 56.1777 37.3868 54.4863C37.1323 56.0454 36.0427 59.0572 31.5999 61.8481C25.619 65.6058 20.6923 66.2609 19.7578 65.9209Z" fill="#8C78FA"/>
<path d="M37.3867 54.4868C32.8349 56.1782 28.4552 57.3661 24.709 58.0595C24.7067 58.0606 24.7067 58.0606 24.7067 58.0606C24.6034 58.0791 24.5005 58.0976 24.3984 58.116C23.9031 58.2044 23.4046 57.9805 23.1737 57.5662L17.6547 47.6625C17.4228 47.2464 17.5174 46.7397 17.8852 46.418C17.9615 46.3513 18.0383 46.2845 18.1159 46.2176L18.1182 46.2166C20.9039 43.799 24.489 41.1963 28.6188 38.7529C34.3239 35.3774 41.0637 32.3078 48.1536 30.46C49.0639 30.2221 49.9495 30.0151 50.8038 29.8369C59.1369 28.0869 64.8105 28.936 67.1363 29.4733C67.8047 29.6278 68.1721 30.2872 67.9202 30.8799C67.0434 32.9426 64.4975 37.7063 58.1188 42.963C57.466 43.5025 56.7694 44.0492 56.0314 44.5962C50.2878 48.8603 43.6717 52.1518 37.3867 54.4868Z" fill="#716BE3"/>
<path d="M58.1184 42.9632L50.8035 29.8369C59.0251 28.1104 64.6578 28.9137 67.0408 29.4515C67.7609 29.6141 68.1587 30.3278 67.8839 30.9642C66.9743 33.0704 64.412 37.7767 58.1184 42.9632Z" fill="#8C78FA"/>
<path d="M44.3485 45.1839C41.9604 44.4757 40.4747 42.3763 40.601 40.1648C40.6251 39.7484 40.7085 39.3258 40.8523 38.9102C40.9962 38.4946 41.1948 38.108 41.4389 37.7548C42.7212 35.8852 45.2493 34.9734 47.6383 35.6783C50.0264 36.3866 51.5121 38.4858 51.3859 40.6973C51.3618 41.1137 51.2783 41.5363 51.1346 41.9519C50.9906 42.3675 50.792 42.7541 50.5479 43.1073C49.2657 44.9767 46.7377 45.8888 44.3485 45.1839Z" fill="#523B89"/>
<path d="M50.548 43.1083L40.6011 40.1658C40.6252 39.7494 40.7086 39.3268 40.8524 38.9112C40.9963 38.4957 41.1949 38.109 41.439 37.7559L51.386 40.6983C51.3619 41.1148 51.2784 41.5373 51.1347 41.9529C50.9907 42.3685 50.7921 42.7553 50.548 43.1083Z" fill="#402E74"/>
<path d="M32.6865 46.1203C27.9831 46.5449 17.2988 50.8858 14.3301 54.8933C14.0266 55.303 14.3365 55.8593 14.8736 55.8687C20.1266 55.9604 30.1524 50.4379 33.2568 47.1439C33.6529 46.7236 33.2866 46.0662 32.6865 46.1203Z" fill="#8C78FA"/>
<path d="M22.0968 37.1235L24.5356 19.5874C24.5356 19.5874 29.9793 19.2833 35.8467 17.2783C35.8467 17.2783 35.9154 18.7565 36.0196 20.8908C36.0525 21.5633 36.8483 23.4797 37.0214 24.9688C37.2783 27.1784 35.6759 28.4849 35.5481 29.4064C34.9309 33.8567 34.4762 36.2638 34.6298 37.5355C34.9393 40.0947 25.8212 40.7151 22.0968 37.1235Z" fill="#EBAF29"/>
<path d="M36.4844 23.7119C37.4432 22.9604 41.0808 20.4943 41.8299 19.8572C43.9797 18.0308 46.0544 16.3818 46.2119 15.1795C46.2925 14.5631 45.2625 14.2495 44.7393 13.7024C44.4928 13.4449 44.204 13.2595 43.8484 13.1703C43.0384 12.9652 44.5356 12.0092 42.7466 13.0684C42.1328 13.4318 43.5206 12.5135 42.7466 13.0684C38.7295 15.9473 30.8055 19.5896 31.0409 21.0599C31.2733 22.5305 32.2683 27.0219 36.4844 23.7119Z" fill="#EBAF29"/>
<path d="M42.5196 15.6333C43.0254 16.3105 43.9141 16.6905 44.7951 16.426C45.2269 16.2959 45.5173 16.4418 45.8993 15.9618C46.2619 15.5083 46.8352 14.6437 47.0983 14.1262C48.9466 10.4907 49.4872 8.97969 49.3458 8.22588C49.2878 7.9173 48.4479 7.57276 47.6367 7.22355C46.9682 6.93565 46.1997 6.80492 45.9736 7.11134C45.721 7.45156 44.3465 9.81587 43.3403 11.5895C43.3247 11.6166 43.3092 11.6438 43.2934 11.6709C43.2926 11.6745 43.2901 11.6778 43.2874 11.681C43.2399 11.766 43.195 11.8477 43.1481 11.929C42.7923 12.5571 42.5023 13.0811 42.3562 13.3632C41.9211 14.1922 42.0674 15.0307 42.5196 15.6333Z" fill="#EBAF29"/>
<path d="M49.8126 6.00378L49.1347 8.24024C49.0814 8.40621 48.9206 8.52076 48.7336 8.52975C48.437 8.54414 48.0861 8.52777 47.6821 8.45566C47.2254 8.37384 46.6408 8.04189 46.3872 7.79787C46.2534 7.66912 46.1656 7.50692 46.2283 7.33789L47.1376 4.83944C47.1376 4.83944 46.6047 3.73227 46.5661 3.23308C46.5276 2.73389 47.0373 2.43521 47.4378 2.38522C47.4378 2.38522 47.4969 1.5307 47.8144 1.19156C48.1316 0.854392 48.5782 1.00688 48.6611 1.30539C48.7655 1.00904 49.4697 0.982784 49.473 1.57062C49.6089 1.24658 50.2831 1.18724 50.3471 1.73462C50.3471 1.73462 50.8731 1.28417 51.1196 2.17015C51.366 3.05434 49.8126 6.00378 49.8126 6.00378Z" fill="#DF6942"/>
<path d="M46.9065 4.32083C46.7574 3.96406 46.5873 3.50695 46.5661 3.23308C46.5276 2.7339 47.0373 2.43521 47.4378 2.38522C47.4378 2.38522 47.4969 1.5307 47.8144 1.19156C48.1316 0.854392 48.5782 1.00688 48.6611 1.30539C48.7655 1.00904 49.4697 0.982784 49.473 1.57062C49.609 1.24658 50.2831 1.18724 50.3471 1.73462C50.3471 1.73462 50.8731 1.28417 51.1196 2.17015" stroke="#814939" stroke-width="0.5744" stroke-miterlimit="10" stroke-linecap="round" stroke-linejoin="round"/>
<path d="M48.6007 4.42431C48.9917 3.25133 47.925 3.0965 47.925 3.0965C47.925 3.0965 48.7738 2.80232 48.7577 2.57969C48.7415 2.35725 48.1426 2.28335 47.4365 2.38405" stroke="#814939" stroke-width="0.5744" stroke-miterlimit="10" stroke-linecap="round" stroke-linejoin="round"/>
<path d="M48.6449 1.2627C48.6449 1.2627 48.4702 2.18662 48.387 2.36591" stroke="#814939" stroke-width="0.5744" stroke-miterlimit="10" stroke-linecap="round" stroke-linejoin="round"/>
<path d="M48.7938 2.58399C49.0623 2.65808 49.326 2.40956 49.4875 1.49121" stroke="#814939" stroke-width="0.5744" stroke-miterlimit="10" stroke-linecap="round" stroke-linejoin="round"/>
<path d="M49.1294 2.47363C49.1595 2.74175 49.4478 2.8669 49.6536 2.86349" stroke="#814939" stroke-width="0.5744" stroke-miterlimit="10" stroke-linecap="round" stroke-linejoin="round"/>
<path d="M50.3464 1.7334C50.1118 1.88751 49.5116 2.84416 49.8148 3.0898C50.1671 3.37518 50.4725 2.69167 50.4725 2.69167" stroke="#814939" stroke-width="0.5744" stroke-miterlimit="10" stroke-linecap="round" stroke-linejoin="round"/>
<path d="M37.0223 53.7793L36.1125 56.3112L40.6169 58.0082L41.7123 54.0798C41.7123 54.0798 38.8054 52.8604 37.0223 53.7793Z" fill="#DF6942"/>
<path d="M22.5584 36.27C22.3267 36.2598 22.1173 36.3941 22.0453 36.598C21.5965 37.8687 20.2715 42.3272 22.8761 44.4984C25.4359 46.632 34.4147 43.5318 37.2653 42.468C37.6427 42.3272 38.0372 42.6293 37.9603 42.9986L35.7979 53.3839C35.7501 53.6141 35.8911 53.8423 36.13 53.9211L42.1047 55.8883C42.3825 55.9798 42.6861 55.8371 42.7695 55.5756C43.7129 52.6184 48.5113 36.926 44.9878 34.2792C42.6449 32.5195 29.404 36.1661 28.2322 36.4936C28.1762 36.5092 28.1192 36.5155 28.0607 36.513L22.5584 36.27Z" fill="white"/>
<path d="M35.8203 55.5684C35.0914 57.0846 33.5758 59.1857 34.5071 59.5683C35.2727 59.8828 42.9629 63.042 43.3023 63.1813C43.6418 63.3207 44.0444 62.2513 43.2243 61.6325C42.4043 61.0137 40.8197 58.3421 40.8826 57.6478L35.8203 55.5684Z" fill="#523B89"/>
<path d="M25.5265 25.3424C24.2892 25.1378 19.8039 24.6945 18.8099 24.4913C15.9585 23.9101 13.2687 23.4476 12.4792 22.4811C12.0746 21.9855 12.7949 21.2362 12.9501 20.5201C13.0232 20.1831 13.1724 19.8884 13.4313 19.6464C14.0201 19.0929 12.2061 18.9616 14.3286 19.0467C13.3578 18.9262 15.0571 19.0758 14.3286 19.0467C19.3666 19.6708 28.1972 19.1409 28.7926 20.5216C29.3906 21.9012 30.9706 26.2471 25.5265 25.3424Z" fill="#EBAF29"/>
<path d="M15.9188 21.1603C15.8494 21.9806 15.2874 22.722 14.382 22.9022C13.9379 22.9903 13.7659 23.2512 13.1748 23.0135C12.615 22.7896 11.6494 22.3082 11.1407 21.983C7.5673 19.6976 6.42764 18.5127 6.14053 17.7952C6.02304 17.5016 6.41344 16.9427 6.92501 16.2642C7.34672 15.705 7.94019 15.2349 8.30218 15.395C8.70561 15.5717 11.1785 16.978 13.0124 18.0445C13.0406 18.0607 13.0688 18.0769 13.097 18.0932C13.0995 18.0959 13.1036 18.0975 13.1077 18.0991C13.195 18.1506 13.2781 18.2004 13.3629 18.2489C14.0118 18.6269 14.5473 18.9452 14.827 19.1214C15.6535 19.6364 15.9826 20.4293 15.9188 21.1603Z" fill="#EBAF29"/>
<path d="M25.65 9.61591C26.4543 8.43016 27.6473 7.66232 29.146 7.46398C29.9916 7.35213 30.3645 7.47405 30.9955 7.55497C31.6265 7.63589 32.2184 7.87433 32.6477 8.3095C33.1575 8.82631 33.6074 9.41919 33.7835 10.0996C33.9642 10.7984 34.1458 11.5021 34.1849 12.2197C34.2242 12.9374 34.1132 13.6776 33.7391 14.3075L31.8255 14.8502C30.7496 15.0104 29.8548 17.2269 28.771 17.1221C27.6872 17.017 26.3851 14.9494 25.7048 14.1624C24.7597 13.0687 24.8455 10.8017 25.65 9.61591Z" fill="#362C37"/>
<path d="M31.7625 20.3018C29.8691 20.8968 27.7748 19.2615 27.7748 19.2615C27.5484 16.8975 26.9243 14.4854 26.9243 14.4854C26.3252 13.0646 29.2632 10.6538 31.3434 14.7753L31.5968 15.3288L32.3972 18.478C32.3972 18.478 32.9226 19.9376 31.7625 20.3018Z" fill="#DF6942"/>
<path d="M32.1172 17.3938C30.8861 17.7412 29.423 17.3537 28.2876 16.0511L31.6249 15.3672L32.1172 17.3938Z" fill="#80493C"/>
<path d="M31.6826 17.0569C30.002 17.4158 28.2833 16.8399 27.3352 15.2911C25.9571 13.0399 27.0413 12.3315 27.6009 11.5499C28.3679 10.4787 29.4513 9.5015 30.4904 9.30765C31.7402 9.07478 32.3747 8.88687 33.3341 12.0679C33.4337 12.3981 33.8225 13.9244 33.7322 14.6667C33.5723 15.9816 32.9275 16.7911 31.6826 17.0569Z" fill="#DF6942"/>
<path d="M27.2297 13.6813C27.0809 12.826 25.6539 12.2639 25.3431 13.4313C25.0739 14.4419 26.1976 14.7286 27.1017 14.5613L27.2297 13.6813Z" fill="#DF6942"/>
<path d="M29.8939 12.4154C29.9824 12.3665 30.1044 12.4269 30.1663 12.5503C30.2281 12.6736 30.2065 12.8135 30.118 12.8624C30.0295 12.9114 29.9076 12.8509 29.8457 12.7276C29.7838 12.604 29.8054 12.4643 29.8939 12.4154Z" fill="black"/>
<path d="M30.2208 12.029C30.215 12.1109 29.9388 12.126 29.6456 12.1938C29.3506 12.2889 29.1064 12.405 29.0584 12.343C29.0205 12.3238 29.0662 12.2339 29.1508 12.1497C29.2354 12.0655 29.3858 11.9771 29.5602 11.9195C29.7476 11.864 29.9302 11.8767 30.0329 11.9053C30.1609 11.9515 30.2237 11.9882 30.2208 12.029Z" fill="#2C2E38"/>
<path d="M31.3505 12.6787C31.3505 12.6787 32.1847 13.4259 32.1764 13.5778C32.1838 13.6566 32.0105 13.751 31.872 13.8084" stroke="black" stroke-width="0.6798" stroke-miterlimit="10" stroke-linecap="round"/>
<path d="M32.4558 11.8084C32.3533 11.7976 32.2695 11.8994 32.2683 12.0353C32.2673 12.1715 32.3494 12.2903 32.4519 12.3011C32.5545 12.3117 32.6383 12.2101 32.6395 12.0742C32.6406 11.9381 32.5585 11.8192 32.4558 11.8084Z" fill="black"/>
<path d="M31.4961 11.6809C31.5418 11.7509 31.7937 11.6428 32.0864 11.5739C32.3946 11.5284 32.668 11.5239 32.6797 11.4481C32.7036 11.4142 32.6188 11.3549 32.5023 11.3177C32.3858 11.2803 32.2088 11.2682 32.0261 11.2939C31.8328 11.327 31.6778 11.4186 31.6009 11.4891C31.5107 11.586 31.4731 11.646 31.4961 11.6809Z" fill="#2C2E38"/>
<path d="M26.1583 12.5386L26.8305 12.972C30.5596 11.1558 31.4318 8.47968 31.2459 8.6703C31.2459 8.6703 30.255 8.18316 29.1144 8.27271C27.9737 8.36226 25.7905 8.72065 25.6913 9.97707C25.5919 11.2337 26.1583 12.5386 26.1583 12.5386Z" fill="#362C37"/>
<path d="M29.9423 8.69769C29.9423 8.69769 31.7302 10.5146 33.5332 10.8662C33.5332 10.8662 33.2243 8.54448 29.9423 8.69769Z" fill="#362C37"/>
<path d="M31.203 14.5811C31.203 14.5811 31.5841 15.2179 32.2567 14.6623" stroke="black" stroke-width="0.6035" stroke-miterlimit="10" stroke-linecap="round"/>
<path d="M4.56085 16.4385L6.51204 17.9017C6.65928 18.0087 6.86216 18.0162 7.0203 17.9238C7.27142 17.7771 7.54744 17.5764 7.83221 17.3015C8.15375 16.9907 8.42334 16.4076 8.478 16.0729C8.50679 15.8963 8.47684 15.717 8.32025 15.6126L6.01641 14.0593C6.01641 14.0593 5.75926 12.871 5.47877 12.443C5.19828 12.015 4.59547 12.0436 4.23737 12.2166C4.23737 12.2166 3.65499 11.5509 3.18407 11.4436C2.71432 11.3378 2.44511 11.7009 2.56415 11.9888C2.29377 11.8027 1.70264 12.1575 2.06736 12.6388C1.7538 12.447 1.16656 12.7588 1.45638 13.2396C1.45638 13.2396 0.745624 13.153 1.09809 14.0076C1.44938 14.8611 4.56085 16.4385 4.56085 16.4385Z" fill="#DF6942"/>
<path d="M5.88083 13.5126C5.77949 13.1418 5.63263 12.6779 5.47877 12.443C5.19828 12.015 4.59547 12.0436 4.23737 12.2166C4.23737 12.2166 3.65499 11.5509 3.18407 11.4436C2.71432 11.3378 2.44511 11.7009 2.56415 11.9888C2.29377 11.8027 1.70264 12.1575 2.06736 12.6388C1.7538 12.447 1.16656 12.7588 1.45638 13.2396C1.45638 13.2396 0.745624 13.153 1.09809 14.0076" stroke="#814939" stroke-width="0.5744" stroke-miterlimit="10" stroke-linecap="round" stroke-linejoin="round"/>
<path d="M4.56338 14.5001C3.51125 13.7516 4.28483 13.0554 4.28483 13.0554C4.28483 13.0554 3.40815 13.2686 3.28211 13.0784C3.15606 12.8881 3.59878 12.508 4.23815 12.2129" stroke="#814939" stroke-width="0.5744" stroke-miterlimit="10" stroke-linecap="round" stroke-linejoin="round"/>
<path d="M2.55078 11.9434C2.55078 11.9434 3.27088 12.6042 3.451 12.706" stroke="#814939" stroke-width="0.5744" stroke-miterlimit="10" stroke-linecap="round" stroke-linejoin="round"/>
<path d="M3.25528 13.1033C3.08255 13.3073 2.712 13.2452 2.0061 12.582" stroke="#814939" stroke-width="0.5744" stroke-miterlimit="10" stroke-linecap="round" stroke-linejoin="round"/>
<path d="M2.91204 13.1904C3.05501 13.4253 2.89803 13.6815 2.72803 13.7887" stroke="#814939" stroke-width="0.5744" stroke-miterlimit="10" stroke-linecap="round" stroke-linejoin="round"/>
<path d="M1.45691 13.2373C1.74479 13.2377 2.83252 13.698 2.73857 14.0604C2.62925 14.4815 1.95292 14.0868 1.95292 14.0868" stroke="#814939" stroke-width="0.5744" stroke-miterlimit="10" stroke-linecap="round" stroke-linejoin="round"/>
<path d="M29.2438 42.4129C29.2438 42.4129 36.4364 41.2039 38.7614 40.465C41.0863 39.7261 38.1075 49.6667 38.1075 49.6667" stroke="#4A15A8" stroke-width="0.5" stroke-miterlimit="10" stroke-linecap="round" stroke-linejoin="round"/>
</svg>
