<svg width="44" height="44" viewBox="0 0 44 44" fill="none" xmlns="http://www.w3.org/2000/svg">
<path d="M21.9231 43.8462C34.0309 43.8462 43.8462 34.0309 43.8462 21.9231C43.8462 9.8153 34.0309 0 21.9231 0C9.8153 0 0 9.8153 0 21.9231C0 34.0309 9.8153 43.8462 21.9231 43.8462Z" fill="#B8BAC0"/>
<path d="M21.9228 32.8921C19.3702 32.8921 17.0543 31.7967 15.3456 30.0264C15.3443 31.0874 15.3058 32.6187 15.0244 33.736C15.2089 33.8488 15.3522 34.034 15.3801 34.2644C15.7448 37.2317 18.5572 39.469 21.9228 39.469C25.2876 39.469 28.1001 37.2314 28.4655 34.2644C28.4938 34.0337 28.6339 33.8488 28.8212 33.7364C28.5399 32.619 28.5013 31.0874 28.5 30.0264C26.7913 31.7967 24.4754 32.8921 21.9228 32.8921Z" fill="white"/>
<path d="M28.5005 14.6211H16.0774C14.0628 14.6211 12.4236 16.2603 12.4236 18.2749V22.6596C12.4236 28.3009 16.6854 32.8903 21.9236 32.8903C27.1617 32.8903 31.4236 28.3009 31.4236 22.6596V17.5442C31.4236 15.9325 30.1126 14.6211 28.5005 14.6211Z" fill="white"/>
<path d="M27.0382 6.58203H17.5382C16.1637 6.58203 15.0083 7.5355 14.6971 8.81535C12.1815 9.13516 10.2305 11.2889 10.2305 13.8897V17.5436C10.2305 19.4269 11.0299 21.1838 12.4228 22.4324V18.2743C12.4228 16.2597 14.062 14.6205 16.0766 14.6205H28.4997C30.1118 14.6205 31.4228 15.9318 31.4228 17.5436V22.4316C32.8159 21.1832 33.6151 19.4264 33.6151 17.5436V13.159C33.6151 9.5326 30.6649 6.58203 27.0382 6.58203Z" fill="#5C546A"/>
<path d="M5.84619 35.8567C9.85903 40.3121 15.6713 43.1147 22.1394 43.1147C28.6076 43.1147 34.4198 40.3121 38.4327 35.8567C37.7329 34.9107 36.7462 34.1421 35.4774 33.7869C35.4482 33.7787 35.4189 33.7723 35.3889 33.768L29.5556 32.8927C29.5199 32.8873 29.4436 32.8845 29.4072 32.8845C29.0382 32.8845 28.7271 33.1596 28.6821 33.526C28.3167 36.4929 25.5042 38.7306 22.1394 38.7306C18.7739 38.7306 15.9614 36.4934 15.5968 33.526C15.5511 33.1488 15.2114 32.8652 14.8531 32.8847C14.8103 32.8823 14.7682 32.8858 14.7232 32.8926L8.88994 33.7679C8.85998 33.7722 8.83074 33.7786 8.80142 33.7868C7.53262 34.1422 6.5459 34.9107 5.84619 35.8567Z" fill="#5C546A"/>
</svg>
